<svg width="20" height="20" viewBox="0 0 20 20" fill="none" xmlns="http://www.w3.org/2000/svg">
<path d="M19.9442 3.01428C19.8888 2.86202 19.795 2.73188 19.6746 2.64032C19.5542 2.54876 19.4127 2.4999 19.2679 2.4999H16.4837C16.1493 1.83726 15.6854 1.27109 15.1279 0.845215C14.5705 0.419335 13.9344 0.145162 13.2689 0.0439131C12.6035 -0.0573356 11.9265 0.0170549 11.2903 0.261328C10.6542 0.505602 10.0759 0.913207 9.60031 1.4526C9.18454 1.9142 8.85408 2.46579 8.62837 3.07492C8.40267 3.68405 8.28628 4.33841 8.28606 4.9995L8.28561 5.637C4.56131 4.53251 1.51478 1.11385 1.48257 1.07718C1.38809 0.969644 1.26957 0.893582 1.13983 0.857237C1.01009 0.820893 0.874094 0.825652 0.746564 0.870999C0.619034 0.916346 0.504838 1.00055 0.416347 1.11449C0.327856 1.22843 0.268445 1.36777 0.24455 1.51739C-0.558493 6.54503 0.76829 9.91046 2.02269 11.8484C2.65381 12.8255 3.41772 13.6819 4.28567 14.3854C2.89034 16.1823 0.73141 17.1261 0.707891 17.1362C0.604634 17.1803 0.51146 17.2504 0.435327 17.3412C0.359195 17.432 0.30207 17.5412 0.26822 17.6607C0.234369 17.7802 0.224667 17.9068 0.239838 18.0311C0.255008 18.1555 0.294661 18.2743 0.355833 18.3787C0.424011 18.4954 0.698831 18.9051 1.36964 19.2869C2.20087 19.7601 3.2963 20 4.62546 20C11.0807 20 16.4739 14.3439 17.0251 7.06461L19.7856 3.92251C19.888 3.80596 19.9577 3.65746 19.9859 3.49579C20.0142 3.33413 19.9997 3.16656 19.9442 3.01428ZM15.7977 6.10471C15.6718 6.24802 15.5961 6.43868 15.5847 6.64096C15.2178 13.1975 10.4039 18.3333 4.62546 18.3333C3.65888 18.3333 2.97398 18.1875 2.50021 18.0125C3.55419 17.3613 5.02255 16.241 5.9668 14.6289C6.02398 14.5307 6.06226 14.4198 6.07913 14.3036C6.096 14.1873 6.09107 14.0683 6.06468 13.9544C6.03828 13.8405 5.99102 13.7342 5.92598 13.6425C5.86094 13.5509 5.77961 13.4759 5.68731 13.4226C5.67377 13.4148 4.32035 12.6177 3.16086 10.7964C1.84204 8.72473 1.28755 6.21763 1.50599 3.3274C2.9501 4.67679 5.71843 6.88555 8.89656 7.48857C9.00138 7.50846 9.10876 7.50213 9.21122 7.47002C9.31367 7.43792 9.40876 7.38081 9.48988 7.30266C9.571 7.22451 9.6362 7.1272 9.68095 7.01749C9.7257 6.90777 9.74893 6.78828 9.74902 6.66732L9.7503 5.00096V5.00012C9.75803 4.1114 10.0742 3.26221 10.6298 2.63777C11.1854 2.01332 11.9354 1.66428 12.7162 1.66677C13.2796 1.67564 13.8289 1.86895 14.2984 2.22361C14.768 2.57826 15.1378 3.07927 15.3639 3.66678C15.4209 3.8153 15.5147 3.94169 15.6338 4.03046C15.753 4.11923 15.8923 4.16653 16.0346 4.16657H17.5003L15.7977 6.10471Z" fill="white"/>
</svg>
