<svg width="27" height="20" viewBox="0 0 27 20" fill="none" xmlns="http://www.w3.org/2000/svg">
<path d="M27 9.91382C27 9.84611 27 9.76916 26.997 9.6799C26.994 9.43059 26.9879 9.15051 26.9819 8.85195C26.9578 7.99323 26.9156 7.13758 26.8493 6.33118C26.7589 5.22007 26.6263 4.29363 26.4455 3.59803C26.2547 2.87211 25.8807 2.21006 25.3609 1.67804C24.8411 1.14603 24.1937 0.762684 23.4834 0.566328C22.6306 0.33241 20.9612 0.18775 18.6107 0.0984917C17.4927 0.0554016 16.2964 0.0277006 15.1001 0.0123113C14.6812 0.00615555 14.2925 0.00307787 13.943 0H13.057C12.7075 0.00307787 12.3188 0.00615555 11.8999 0.0123113C10.7036 0.0277006 9.50725 0.0554016 8.38929 0.0984917C6.03884 0.190828 4.36641 0.335488 3.51663 0.566328C2.80607 0.762202 2.1584 1.14538 1.63851 1.67747C1.11863 2.20957 0.744791 2.87187 0.554464 3.59803C0.370647 4.29363 0.241071 5.22007 0.15067 6.33118C0.084375 7.13758 0.0421875 7.99323 0.0180803 8.85195C0.00904013 9.15051 0.00602674 9.43059 0.00301335 9.6799C0.00301335 9.76916 0 9.84611 0 9.91382V10.0862C0 10.1539 -4.60256e-08 10.2308 0.00301335 10.3201C0.00602674 10.5694 0.0120535 10.8495 0.0180803 11.148C0.0421875 12.0068 0.084375 12.8624 0.15067 13.6688C0.241071 14.7799 0.373661 15.7064 0.554464 16.402C0.940179 17.8763 2.07321 19.0397 3.51663 19.4337C4.36641 19.6676 6.03884 19.8122 8.38929 19.9015C9.50725 19.9446 10.7036 19.9723 11.8999 19.9877C12.3188 19.9938 12.7075 19.9969 13.057 20H13.943C14.2925 19.9969 14.6812 19.9938 15.1001 19.9877C16.2964 19.9723 17.4927 19.9446 18.6107 19.9015C20.9612 19.8092 22.6336 19.6645 23.4834 19.4337C24.9268 19.0397 26.0598 17.8793 26.4455 16.402C26.6294 15.7064 26.7589 14.7799 26.8493 13.6688C26.9156 12.8624 26.9578 12.0068 26.9819 11.148C26.991 10.8495 26.994 10.5694 26.997 10.3201C26.997 10.2308 27 10.1539 27 10.0862V9.91382ZM24.8304 10.0739C24.8304 10.1385 24.8304 10.2093 24.8273 10.2924C24.8243 10.5325 24.8183 10.7972 24.8123 11.0834C24.7912 11.9021 24.749 12.7208 24.6857 13.4811C24.6044 14.4721 24.4898 15.2847 24.3482 15.8295C24.1614 16.5405 23.6129 17.1037 22.9199 17.2915C22.2871 17.4638 20.693 17.6023 18.5263 17.6854C17.4295 17.7285 16.2482 17.7562 15.07 17.7716C14.6571 17.7778 14.2744 17.7809 13.9309 17.7809H13.0691L11.93 17.7716C10.7518 17.7562 9.57355 17.7285 8.47366 17.6854C6.30703 17.5993 4.70993 17.4638 4.08013 17.2915C3.38705 17.1006 2.83862 16.5405 2.65179 15.8295C2.51016 15.2847 2.39565 14.4721 2.31429 13.4811C2.251 12.7208 2.21183 11.9021 2.18772 11.0834C2.17868 10.7972 2.17567 10.5294 2.17266 10.2924C2.17266 10.2093 2.16964 10.1354 2.16964 10.0739V9.92613C2.16964 9.8615 2.16964 9.7907 2.17266 9.7076C2.17567 9.46753 2.1817 9.20283 2.18772 8.91659C2.20882 8.09787 2.251 7.27916 2.31429 6.51893C2.39565 5.52785 2.51016 4.7153 2.65179 4.17051C2.83862 3.45953 3.38705 2.89628 4.08013 2.70853C4.71295 2.53616 6.30703 2.39766 8.47366 2.31456C9.57054 2.27147 10.7518 2.24377 11.93 2.22838C12.3429 2.22222 12.7256 2.21914 13.0691 2.21914H13.9309L15.07 2.22838C16.2482 2.24377 17.4265 2.27147 18.5263 2.31456C20.693 2.40074 22.2901 2.53616 22.9199 2.70853C23.6129 2.89935 24.1614 3.45953 24.3482 4.17051C24.4898 4.7153 24.6044 5.52785 24.6857 6.51893C24.749 7.27916 24.7882 8.09787 24.8123 8.91659C24.8213 9.20283 24.8243 9.47061 24.8273 9.7076C24.8273 9.7907 24.8304 9.86457 24.8304 9.92613V10.0739ZM10.8181 14.1243L17.8092 9.96922L10.8181 5.87565V14.1243Z" fill="white"/>
</svg>
